 http://img88.imageshack.us/img88/2452/83382c6dovieposter.jpg

Country.......: USA
Genre.........: Action, Thriller, Fantasy
Date release..: 24.02.2011 [World]
Director......: Patrick Lussier
Writers.......: Todd Farmer, Patrick Lussier
Duration......: 104 min.
More..........: http://www.imdb.com/title/tt1502404
Trailer.......: http://www.imdb.com/video/imdb/vi1259117081
Trailer.......:

Pilot :
A vengeful father escapes from hell and chases after the men who killed his daughter and kidnapped his granddaughter. 

Cats :
Nicolas Cage   	 ...  	Milton
Amber Heard 	... 	Piper
William Fichtner 	... 	The Accountant
Billy Burke 	... 	Jonah King
David Morse 	... 	Webster
Todd Farmer 	... 	Frank
Christa Campbell 	... 	Mona
Charlotte Ross 	... 	Candy
Tom Atkins 	... 	Cap
Jack McGee 	... 	Fat Lou
Katy Mixon 	... 	Norma Jean
Wanetah Walmsley 	... 	American Indian Mother
Robin McGee 	... 	Guy with Camera Phone
Fabian C. Moreno 	... 	Latino Busboy
Edrick Browne 	... 	Rookie 

Data Technical :
!!! SAMPLE !!!
Audio.....: English
Subtitles.: None
Format                           : AVI
Format/Info                      : Audio Video Interleave
Format profile                   : OpenDML
File size                        : 1.23 GiB
Duration                         : 23mn 9s
Overall bit rate                 : 7 591 Kbps
Video
ID                               : 0
Format                           : MPEG-4 Visual
Format profile                   : Simple@L3
Format settings, BVOP            : No
Format settings, QPel            : No
Format settings, GMC             : No warppoints
Format settings, Matrix          : Default (H.263)
Codec ID                         : XVID
Codec ID/Hint                    : XviD
Duration                         : 23mn 9s
Bit rate                         : 1 550 Kbps
Width                            : 720 pixels
Height                           : 480 pixels
Display aspect ratio             : 3:2
Frame rate                       : 29.970 fps
Original frame rate              : 29.000 fps
Standard                         : NTSC
Color space                      : YUV
Chroma subsampling               : 4:2:0
Bit depth                        : 8 bits
Scan type                        : Progressive
Bits/(Pixel*Frame)               : 0.150
Stream size                      : 257 MiB (20%)
Writing library                  : XviD 1.2.1 (UTC 2008-12-04)
Audio
ID                               : 1
Format                           : MPEG Audio
Format version                   : Version 1
Format profile                   : Layer 3
Mode                             : Joint stereo
Mode extension                   : MS Stereo
Codec ID                         : 55
Codec ID/Hint                    : MP3
Duration                         : 18mn 36s
Bit rate mode                    : Constant
Bit rate                         : 128 Kbps
Channel(s)                       : 2 channels
Sampling rate                    : 44.1 KHz
Stream size                      : 17.0 MiB (1%)
Alignment                        : Aligned on interleaves
Interleave, duration             : 33 ms (0.97 video frame)
Writing library                  : LAME3.98.2

Screen : 
http://img825.imageshack.us/img825/3315/driveangry2011s1.jpg 
http://img27.imageshack.us/img27/7018/driveangry2011s2.jpg 
http://img146.imageshack.us/img146/8041/driveangry2011s3.jpg 
http://img834.imageshack.us/img834/4029/driveangry2011s4.jpg 
http://img651.imageshack.us/img651/9817/driveangry2011s5.jpg